PathFileType	4	(X/Y/Z)	/Users/itak/Documents/Research/Walk-IL/dataset/trc/00329_00011.trc
DataRate	CameraRate	NumFrames	NumMarkers	Units	OrigDataRate	OrigDataStartFrame	OrigNumFrames
100.000000	100.000000	4	53	mm	100.000000	411	548
Frame#	Time	RPSI			LPSI			L3			STRN			T10			C7			CLAV			RBAK			LBAK			LSHO			LUPA			LAEL			LAOL			LWTS			LWPS			LFRA			LIFD			LHPS			LHTS			RSHO			RUPA			RAEL			RAOL			RWTS			RWPS			RFRA			RIFD			RHTS			RHPS			RBHD			LFHD			RFHD			LBHD			LHIP			RHIP			RASI			LASI			LKNE			LTHI			LANK			LTIP			LTOE			LMT5			LHEE			RKNE			RTHI			RANK			RTIP			RTOE			RMT1			RMT5			RHEE			LMT1			
		X1	Y1	Z1	X2	Y2	Z2	X3	Y3	Z3	X4	Y4	Z4	X5	Y5	Z5	X6	Y6	Z6	X7	Y7	Z7	X8	Y8	Z8	X9	Y9	Z9	X10	Y10	Z10	X11	Y11	Z11	X12	Y12	Z12	X13	Y13	Z13	X14	Y14	Z14	X15	Y15	Z15	X16	Y16	Z16	X17	Y17	Z17	X18	Y18	Z18	X19	Y19	Z19	X20	Y20	Z20	X21	Y21	Z21	X22	Y22	Z22	X23	Y23	Z23	X24	Y24	Z24	X25	Y25	Z25	X26	Y26	Z26	X27	Y27	Z27	X28	Y28	Z28	X29	Y29	Z29	X30	Y30	Z30	X31	Y31	Z31	X32	Y32	Z32	X33	Y33	Z33	X34	Y34	Z34	X35	Y35	Z35	X36	Y36	Z36	X37	Y37	Z37	X38	Y38	Z38	X39	Y39	Z39	X40	Y40	Z40	X41	Y41	Z41	X42	Y42	Z42	X43	Y43	Z43	X44	Y44	Z44	X45	Y45	Z45	X46	Y46	Z46	X47	Y47	Z47	X48	Y48	Z48	X49	Y49	Z49	X50	Y50	Z50	X51	Y51	Z51	X52	Y52	Z52	X53	Y53	Z53	

412	4.11	-993.647705078125	975.8746948242188	229.9837036132812	-999.91064453125	974.56640625	100.0457916259766	-994.9332275390625	1046.839233398438	171.0310363769531	-729.8621826171875	1192.337646484375	143.682861328125	-976.3611450195312	1165.610595703125	166.7015380859375	-902.880859375	1404.573120117188	144.4372711181641	-758.3486328125	1320.819458007812	137.6677703857422	-963.1160888671875	1275.847290039062	225.1774749755859	-926.13232421875	1367.202392578125	44.97946548461914	-843.0650024414062	1366.875854492188	-18.74422836303711	-882.1453857421875	1248.565551757812	-78.85171508789062	-895.6728515625	1043.905639648438	-87.44232177734375	-952.5679321289062	1041.134033203125	-25.25715827941895	-845.6353759765625	784.842041015625	-47.90735626220703	-890.084228515625	783.8056030273438	-100.8358993530273	-899.5156860351562	938.9107055664062	-93.71495819091797	-871.4306030273438	628.618408203125	-46.77243041992188	-909.626953125	715.39892578125	-92.34188079833984	-851.358154296875	706.2433471679688	-65.07493591308594	-828.9244995117188	1386.22314453125	299.2760925292969	-831.5753173828125	1325.12109375	370.0519714355469	-785.4698486328125	1061.683349609375	417.699462890625	-853.8203735351562	1039.401733398438	355.2015991210938	-640.31103515625	879.2774658203125	319.1471862792969	-642.9642944335938	852.2356567382812	390.5494689941406	-744.8430786132812	1000.389709472656	416.6239624023438	-557.911376953125	729.3651123046875	301.2461547851562	-573.8860473632812	798.4385375976562	311.8022155761719	-599.0440063476562	781.1729125976562	373.2647094726562	-843.2449340820312	1595.28955078125	213.3035430908203	-677.2012329101562	1598.9296875	84.35855865478516	-682.375732421875	1603.657592773438	185.548095703125	-862.9733276367188	1583.482055664062	68.78455352783203	-917.1018676757812	917.7349243164062	-6.729425430297852	-916.8455200195312	912.84326171875	335.888671875	-809.57861328125	933.244873046875	293.6454772949219	-795.6822509765625	937.222412109375	55.63683700561523	-728.8093872070312	479.7022094726562	14.45036792755127	-779.65673828125	610.6195068359375	-2.79802417755127	-692.1625366210938	51.08966445922852	38.7822151184082	-714.2923583984375	260.0071716308594	13.00091648101807	-488.5154113769531	104.3034515380859	74.72335052490234	-571.131591796875	77.02639007568359	11.47127246856689	-717.5776977539062	45.91480255126953	110.7511367797852	-921.9117431640625	445.7044067382812	298.7455749511719	-863.3367309570312	700.2929077148438	331.6804809570312	-1059.127197265625	50.70853042602539	246.8187255859375	-936.4642944335938	325.7693786621094	278.400634765625	-864.3214111328125	51.39302825927734	206.9344329833984	-914.9014892578125	41.35313415527344	161.08349609375	-958.0564575195312	39.93703460693359	271.5202941894531	-1108.3447265625	55.18661117553711	196.7546539306641	-548.26953125	79.78391265869141	123.2124099731445	
413	4.12	-999.0391845703125	977.9303588867188	230.6482696533203	-1005.109191894531	977.178955078125	100.6943435668945	-1000.46630859375	1049.11181640625	171.4408264160156	-734.9786987304688	1194.766845703125	144.1423797607422	-982.05712890625	1167.9033203125	166.5858612060547	-908.4515380859375	1406.650756835938	144.1372528076172	-763.9638671875	1323.0703125	138.0638885498047	-969.0158081054688	1278.146728515625	224.7953796386719	-931.2269897460938	1369.402709960938	44.59254455566406	-847.8231201171875	1369.372802734375	-18.6376895904541	-885.865966796875	1251.109130859375	-79.32737731933594	-898.1347045898438	1046.21435546875	-87.56174468994141	-956.0816650390625	1043.45263671875	-26.28672218322754	-847.3279418945312	787.4576416015625	-46.5107421875	-891.1454467773438	786.02685546875	-100.0771102905273	-901.2672119140625	941.1988525390625	-93.47930908203125	-872.9122924804688	631.0401611328125	-44.87931442260742	-910.4944458007812	717.4420776367188	-91.45921325683594	-852.1694946289062	708.3137817382812	-64.07478332519531	-835.1715698242188	1388.619995117188	299.1669006347656	-838.3412475585938	1327.632934570312	370.0731506347656	-794.7608642578125	1063.879150390625	417.638671875	-862.740966796875	1042.2578125	354.5677795410156	-650.418701171875	880.0862426757812	320.2734985351562	-653.8085327148438	853.1983642578125	391.7098693847656	-754.6842651367188	1002.259338378906	416.9035034179688	-569.3196411132812	729.3251342773438	303.0569458007812	-584.3265991210938	798.7326049804688	313.5173645019531	-610.40576171875	781.6881713867188	374.8174438476562	-848.8363037109375	1596.988159179688	213.7922210693359	-682.331787109375	1600.785034179688	85.38997650146484	-687.8753051757812	1605.160400390625	186.6007385253906	-868.0869750976562	1585.751708984375	69.17263031005859	-922.1162109375	920.935546875	-6.307513236999512	-922.41259765625	914.3990478515625	336.3192749023438	-815.146240234375	935.0277099609375	294.0866088867188	-800.6290893554688	940.33447265625	56.27883911132812	-733.447265625	482.8909301757812	15.5501651763916	-783.5440673828125	613.7699584960938	-2.165532112121582	-707.006103515625	52.53465270996094	39.69436264038086	-723.7918701171875	261.8958740234375	13.94050121307373	-502.3031311035156	101.028205871582	76.02173614501953	-585.3983154296875	75.73272705078125	12.63190174102783	-732.6880493164062	47.83591842651367	111.5684585571289	-925.3659057617188	446.4445495605469	298.5797119140625	-868.155029296875	701.4296264648438	331.8000793457031	-1059.084716796875	50.80487442016602	246.6858520507812	-938.7890625	326.5679321289062	277.923828125	-864.26416015625	51.46151733398438	206.9015045166016	-914.8757934570312	41.36212921142578	161.0921173095703	-958.112548828125	40.10648727416992	271.443603515625	-1108.394653320312	55.05295181274414	196.5440216064453	-562.5772094726562	77.56195068359375	124.2986145019531	
414	4.13	-1004.223999023438	979.7381591796875	231.3096466064453	-1010.064636230469	979.692626953125	101.3272705078125	-1005.759399414062	1051.234252929688	171.8488006591797	-740.0494384765625	1197.114624023438	144.5545196533203	-987.6006469726562	1170.01416015625	166.5951690673828	-913.9727783203125	1408.588745117188	143.84814453125	-769.5013427734375	1325.252807617188	138.4052429199219	-974.8134155273438	1280.304077148438	224.4794616699219	-936.306396484375	1371.418090820312	44.25844573974609	-852.6371459960938	1371.748413085938	-18.53189277648926	-889.6431884765625	1253.550170898438	-79.80703735351562	-900.570068359375	1048.448364257812	-87.76931762695312	-959.5382080078125	1045.602294921875	-27.40436172485352	-848.6774291992188	790.0451049804688	-45.26432037353516	-891.805908203125	788.193603515625	-99.46726226806641	-902.8831787109375	943.4071044921875	-93.38828277587891	-874.2946166992188	633.2827758789062	-42.93229293823242	-910.8846435546875	719.4163818359375	-90.80069732666016	-852.5458374023438	710.3323974609375	-63.27166366577148	-841.3035888671875	1390.953735351562	299.0284118652344	-844.957763671875	1330.112182617188	370.0804443359375	-804.1792602539062	1065.983764648438	417.5376281738281	-871.673583984375	1045.120727539062	353.7608642578125	-660.72607421875	880.6159057617188	321.4818115234375	-664.970703125	853.9290771484375	392.9419555664062	-764.6718139648438	1004.001831054688	417.1380920410156	-581.316162109375	728.8067626953125	305.0807495117188	-595.1310424804688	798.614990234375	315.4051208496094	-622.2213134765625	781.891357421875	376.5182800292969	-854.3876953125	1598.62548828125	214.1879119873047	-687.463623046875	1602.533935546875	86.30201721191406	-693.3458862304688	1606.588745117188	187.5229034423828	-873.2031860351562	1587.923461914062	69.48699188232422	-926.8151245117188	924.0470581054688	-5.847823619842529	-927.8150634765625	915.5689697265625	336.693115234375	-820.4645385742188	936.4478149414062	294.4429626464844	-805.3676147460938	943.2359008789062	56.80893325805664	-737.8323364257812	486.0253295898438	16.63864326477051	-787.2681274414062	616.815673828125	-1.528357148170471	-722.5328369140625	54.05049133300781	40.33325576782227	-733.4728393554688	263.7911071777344	14.70473575592041	-516.9736938476562	97.70582580566406	77.43987274169922	-600.3644409179688	74.46346282958984	13.76060676574707	-748.6196899414062	49.80841445922852	112.0584411621094	-928.8662109375	447.0715026855469	298.1112365722656	-872.9136962890625	702.3534545898438	331.7944946289062	-1059.07177734375	50.88829803466797	246.5141906738281	-941.1874389648438	327.3047790527344	277.3927612304688	-864.2236938476562	51.52906799316406	206.8533020019531	-914.864990234375	41.34305953979492	161.0935211181641	-958.2105102539062	40.31050491333008	271.3500671386719	-1108.517456054688	54.86880874633789	196.2604370117188	-577.820068359375	75.24076080322266	125.3677062988281	
415	4.14	-1009.238586425781	981.24853515625	231.9229125976562	-1014.82177734375	982.0068969726562	101.8966217041016	-1010.845397949219	1053.154296875	172.1903839111328	-745.1258544921875	1199.307006835938	144.9483642578125	-992.9781494140625	1171.890625	166.6826477050781	-919.4479370117188	1410.353881835938	143.5739593505859	-774.95947265625	1327.311889648438	138.7074890136719	-980.5353393554688	1282.272583007812	224.2179870605469	-941.364013671875	1373.201416015625	43.97183227539062	-857.4957275390625	1373.923950195312	-18.43194580078125	-893.5047607421875	1255.793212890625	-80.26103210449219	-903.0296630859375	1050.51806640625	-88.06345367431641	-962.9588623046875	1047.490600585938	-28.5803394317627	-849.729736328125	792.5323486328125	-44.19020462036133	-892.1194458007812	790.2250366210938	-99.00343322753906	-904.4306030273438	945.4468994140625	-93.44160461425781	-875.5565185546875	635.2777099609375	-40.91655731201172	-910.837890625	721.2489624023438	-90.35001373291016	-852.5645751953125	712.2576293945312	-62.61745071411133	-847.3268432617188	1393.151733398438	298.8935852050781	-851.457763671875	1332.472778320312	370.0872192382812	-813.694580078125	1067.919067382812	417.4377136230469	-880.5841674804688	1047.895385742188	352.8434753417969	-671.1845703125	880.8297119140625	322.7576599121094	-676.3931884765625	854.3790893554688	394.2254638671875	-774.7533569335938	1005.546264648438	417.3575744628906	-593.86328125	727.7944946289062	307.2887268066406	-606.2848510742188	798.0569458007812	317.4236755371094	-634.4161987304688	781.7490844726562	378.3255310058594	-859.90234375	1600.184692382812	214.4997863769531	-692.6077880859375	1604.15576171875	87.09123229980469	-698.791015625	1607.936401367188	188.3103790283203	-878.3324584960938	1589.958740234375	69.73739624023438	-931.2608642578125	926.956787109375	-5.407180786132812	-933.0786743164062	916.3616943359375	336.9965209960938	-825.5635375976562	937.5344848632812	294.7578735351562	-809.980712890625	945.8056030273438	57.25690460205078	-741.9635009765625	488.9847106933594	17.69659614562988	-790.8326416015625	619.70263671875	-0.8752480149269104	-738.6799926757812	55.66508102416992	40.65305328369141	-743.3428955078125	265.6776123046875	15.27769947052002	-532.471923828125	94.37014007568359	78.89259338378906	-616.0103759765625	73.27663421630859	14.77302932739258	-765.287109375	51.85754776000977	112.1851806640625	-932.3287353515625	447.6402587890625	297.4259948730469	-877.5845336914062	703.106689453125	331.69775390625	-1059.105224609375	50.94845581054688	246.3356018066406	-943.6123046875	328.0049133300781	276.8792114257812	-864.213623046875	51.59425735473633	206.8023986816406	-914.8860473632812	41.31546401977539	161.1029663085938	-958.3568115234375	40.53656768798828	271.2612609863281	-1108.712768554688	54.64126586914062	195.9529418945312	-593.9244384765625	72.86567687988281	126.3510131835938	
